<svg xmlns:mydata="http://www.w3.org/2000/svg" mydata:contrastcolor="11111f" mydata:template="Contrast" mydata:presentation="2.5" mydata:layouttype="undefined" mydata:specialfontid="undefined" mydata:id1="856" mydata:id2="990" mydata:companyname="dwitter" mydata:companytagline="" version="1.1" xmlns="http://www.w3.org/2000/svg" xmlns:xlink="http://www.w3.org/1999/xlink" viewBox="0 0 550 470"><g fill="#4ec3e0" fill-rule="none" stroke="none" stroke-width="1" stroke-linecap="butt" stroke-linejoin="miter" stroke-miterlimit="10" stroke-dasharray="" stroke-dashoffset="0" font-family="none" font-weight="none" font-size="none" text-anchor="none" style="mix-blend-mode: normal"><g data-paper-data="{&quot;isGlobalGroup&quot;:true}"><g data-paper-data="{&quot;isPrimaryText&quot;:true}" fill-rule="nonzero"><path d="M67.81187,340.99573h39.45994c11.43495,0 20.71413,-9.27918 20.71413,-20.71413c0,-11.43495 -9.27918,-20.71413 -20.71413,-20.71413h-39.45994c-1.59339,0 -2.81187,1.21848 -2.81187,2.81187v35.80451c0,1.59339 1.21848,2.81187 2.81187,2.81187zM70.62374,305.19122h36.64807c8.34189,0 15.09038,6.74849 15.09038,15.09038c0,8.34189 -6.74849,15.18411 -15.09038,15.18411h-36.64807z" data-paper-data="{&quot;glyphName&quot;:&quot;D&quot;,&quot;glyphIndex&quot;:0,&quot;firstGlyphOfWord&quot;:true,&quot;word&quot;:1}" fill="#ffffff"></path><path d="M147.66905,340.99573c4.40527,0 8.24816,-2.06204 10.77884,-5.34256c2.43696,3.28052 6.37358,5.34256 10.68511,5.34256h14.43428c7.4046,0 13.49699,-6.09239 13.49699,-13.49699v-25.11939c0,-1.59339 -1.21848,-2.81187 -2.81187,-2.81187c-1.49967,0 -2.71814,1.21848 -2.71814,2.81187v25.11939c0,4.40527 -3.65543,7.96697 -7.96697,7.96697h-14.43428c-4.31154,0 -7.96697,-3.5617 -7.96697,-7.96697v-25.11939c0,-1.59339 -1.21848,-2.81187 -2.71814,-2.81187c-1.59339,0 -2.81187,1.21848 -2.81187,2.81187v25.11939c0,4.40527 -3.5617,7.96697 -7.96697,7.96697c-4.40527,0 -7.96697,-3.5617 -7.96697,-7.96697v-25.11939c0,-1.59339 -1.31221,-2.81187 -2.81187,-2.81187c-1.49967,0 -2.81187,1.21848 -2.81187,2.81187v25.11939c0,7.4046 6.09239,13.49699 13.59072,13.49699z" data-paper-data="{&quot;glyphName&quot;:&quot;W&quot;,&quot;glyphIndex&quot;:1,&quot;word&quot;:1}" fill="#ffffff"></path><path d="M205.96853,340.99573c1.49967,0 2.71814,-1.21848 2.71814,-2.81187v-35.80451c0,-1.59339 -1.21848,-2.81187 -2.71814,-2.81187c-1.59339,0 -2.81187,1.21848 -2.81187,2.81187v35.80451c0,1.59339 1.21848,2.81187 2.81187,2.81187z" data-paper-data="{&quot;glyphName&quot;:&quot;I&quot;,&quot;glyphIndex&quot;:2,&quot;word&quot;:1}" fill="#ffffff"></path><path d="M246.27204,341.08946c1.49967,0 2.81187,-1.21848 2.81187,-2.71814v-33.08636h25.86923c1.49967,0 2.81187,-1.31221 2.81187,-2.81187c0,-1.59339 -1.31221,-2.81187 -2.81187,-2.81187h-57.3622c-1.59339,0 -2.81187,1.21848 -2.81187,2.81187c0,1.49967 1.21848,2.81187 2.81187,2.81187h25.86923v33.08636c0,1.49967 1.21848,2.71814 2.81187,2.71814z" data-paper-data="{&quot;glyphName&quot;:&quot;T&quot;,&quot;glyphIndex&quot;:3,&quot;word&quot;:1}" fill="#ffffff"></path><path d="M315.35037,341.08946c1.49967,0 2.81187,-1.21848 2.81187,-2.71814v-33.08636h25.86923c1.49967,0 2.81187,-1.31221 2.81187,-2.81187c0,-1.59339 -1.31221,-2.81187 -2.81187,-2.81187h-57.3622c-1.59339,0 -2.81187,1.21848 -2.81187,2.81187c0,1.49967 1.21848,2.81187 2.81187,2.81187h25.86923v33.08636c0,1.49967 1.21848,2.71814 2.81187,2.71814z" data-paper-data="{&quot;glyphName&quot;:&quot;T&quot;,&quot;glyphIndex&quot;:4,&quot;word&quot;:1}" fill="#ffffff"></path><path d="M413.1098,335.37199h-39.45994c-8.34189,0 -15.09038,-6.74849 -15.09038,-15.09038c0,-8.34189 6.74849,-15.18411 15.09038,-15.18411h39.45994c1.59339,0 2.81187,-1.21848 2.81187,-2.81187c0,-1.49967 -1.21848,-2.71814 -2.81187,-2.71814h-39.45994c-11.43495,0 -20.71413,9.27918 -20.71413,20.71413c0,11.43495 9.27918,20.71413 20.71413,20.71413h39.45994c1.59339,0 2.81187,-1.21848 2.81187,-2.81187c0,-1.49967 -1.21848,-2.81187 -2.81187,-2.81187zM413.1098,313.90803h-43.02165c-1.49967,0 -2.81187,1.21848 -2.81187,2.71814c0,1.59339 1.31221,2.81187 2.81187,2.81187h43.02165c1.59339,0 2.81187,-1.21848 2.81187,-2.81187c0,-1.49967 -1.21848,-2.71814 -2.81187,-2.71814z" data-paper-data="{&quot;glyphName&quot;:&quot;E&quot;,&quot;glyphIndex&quot;:5,&quot;word&quot;:1}" fill="#ffffff"></path><path d="M424.82593,340.99573c1.49967,0 2.81187,-1.31221 2.81187,-2.81187v-18.74582h26.71279c7.49833,0 14.52801,3.74916 18.65209,10.02901l6.84222,10.21647c0.56237,0.84356 1.49967,1.31221 2.34323,1.31221c0.56237,0 1.12475,-0.18746 1.59339,-0.46865c1.21848,-0.84356 1.59339,-2.62441 0.74983,-3.93662l-6.84222,-10.21647c-1.78085,-2.71814 -4.03035,-5.06137 -6.56104,-6.93595h3.93662c5.43629,0 9.93528,-4.499 9.93528,-9.93528c0,-5.53002 -4.499,-9.93528 -9.93528,-9.93528h-50.23879c-1.59339,0 -2.81187,1.21848 -2.81187,2.71814v35.89824c0,1.49967 1.21848,2.81187 2.81187,2.81187zM427.6378,305.0975h47.42691c2.34323,0 4.31154,1.96831 4.31154,4.40527c0,2.43696 -1.96831,4.40527 -4.31154,4.40527h-47.42691z" data-paper-data="{&quot;glyphName&quot;:&quot;R&quot;,&quot;glyphIndex&quot;:6,&quot;lastGlyphOfWord&quot;:true,&quot;word&quot;:1}" fill="#ffffff"></path></g><g data-paper-data="{&quot;isIcon&quot;:&quot;true&quot;,&quot;iconType&quot;:&quot;icon&quot;,&quot;rawIconId&quot;:&quot;4040034&quot;,&quot;selectedEffects&quot;:{&quot;container&quot;:&quot;&quot;,&quot;transformation&quot;:&quot;&quot;,&quot;pattern&quot;:&quot;&quot;},&quot;fillRule&quot;:&quot;evenodd&quot;,&quot;bounds&quot;:{&quot;x&quot;:203.84724571610138,&quot;y&quot;:128.91053868903396,&quot;width&quot;:142.30550856779723,&quot;height&quot;:142.98142927507985},&quot;iconStyle&quot;:&quot;standalone&quot;}" fill-rule="evenodd"><path d="M324.5714,198.22692c-0.89973,3.74886 -4.34867,6.59799 -8.24748,6.59799c-4.64858,0 -8.54739,-3.74886 -8.54739,-8.54739c0,-4.79854 3.74886,-8.54739 8.54739,-8.54739c4.04877,0 7.49772,2.84913 8.24748,6.59799h20.54374c-0.74977,-1.79945 -1.79945,-3.44895 -3.299,-4.79854l-56.23288,-56.23288c-5.84822,-5.84822 -15.29534,-5.84822 -21.14356,0l-17.09479,17.09479h19.49406l17.3947,17.3947c1.34959,-0.89973 2.84913,-1.34959 4.49863,-1.34959c4.64858,0 8.54739,3.74886 8.54739,8.54739c0,4.79854 -3.74886,8.54739 -8.54739,8.54739c-4.64858,0 -8.54739,-3.74886 -8.54739,-8.54739c0,-1.6495 0.44986,-3.14904 1.34959,-4.49863l-16.19506,-16.19506h-21.74337l-22.19324,22.19324h29.39104l36.13899,36.13899c1.34959,-0.89973 2.84913,-1.34959 4.49863,-1.34959c4.64858,0 8.54739,3.74886 8.54739,8.54739c0,4.79854 -3.74886,8.54739 -8.54739,8.54739c-4.64858,0 -8.54739,-3.74886 -8.54739,-8.54739c0,-1.6495 0.44986,-3.14904 1.34959,-4.49863l-34.93935,-34.93935h-31.64036l-9.44712,9.44712c-4.64858,4.64858 -5.54831,11.54648 -2.84913,17.09479h32.39013c0.89973,-3.74886 4.34867,-6.59799 8.24748,-6.59799c4.64858,0 8.54739,3.74886 8.54739,8.54739c0,4.79854 -3.74886,8.54739 -8.54739,8.54739c-4.04877,0 -7.49772,-2.84913 -8.24748,-6.59799h-29.84091l0.29991,0.29991l38.98812,38.98812l17.84456,-17.84456l8.69735,8.69735c1.34959,-0.89973 2.99909,-1.34959 4.64858,-1.34959c4.64858,0 8.54739,3.74886 8.54739,8.54739c0,4.79854 -3.74886,8.54739 -8.54739,8.54739c-4.79854,0 -8.54739,-3.74886 -8.54739,-8.54739c0,-1.6495 0.44986,-3.14904 1.19964,-4.34867l-5.99817,-5.99817l-15.14539,15.14539l14.54557,14.54557c5.84822,5.84822 15.29534,5.84822 21.14356,0l56.23288,-56.23288c3.44895,-3.44895 4.79854,-8.09753 4.19872,-12.44621h-21.44347zM288.73232,179.63258c2.54922,0 4.64858,-2.09936 4.64858,-4.64858c0,-2.54922 -2.09936,-4.64858 -4.64858,-4.64858c-2.54922,0 -4.64858,2.09936 -4.64858,4.64858c0,2.54922 2.09936,4.64858 4.64858,4.64858zM311.52538,196.42747c0,2.54922 2.09936,4.64858 4.64858,4.64858c2.54922,0 4.64858,-2.09936 4.64858,-4.64858c0,-2.54922 -2.09936,-4.64858 -4.64858,-4.64858c-2.54922,0 -4.64858,1.94941 -4.64858,4.64858zM250.64392,208.57377c0,-2.54922 -2.09936,-4.64858 -4.64858,-4.64858c-2.54922,0 -4.64858,2.09936 -4.64858,4.64858c0,2.54922 2.09936,4.64858 4.64858,4.64858c2.54922,0 4.64858,-2.09936 4.64858,-4.64858zM291.4315,224.31897c2.54922,0 4.64858,-2.09936 4.64858,-4.64858c0,-2.54922 -2.09936,-4.64858 -4.64858,-4.64858c-2.54922,0 -4.64858,2.09936 -4.64858,4.64858c0,2.54922 2.09936,4.64858 4.64858,4.64858zM278.23551,252.5104c2.54922,0 4.64858,-2.09936 4.64858,-4.64858c0,-2.54922 -2.09936,-4.64858 -4.64858,-4.64858c-2.54922,0 -4.64858,2.09936 -4.64858,4.64858c-0.14995,2.54922 2.09936,4.64858 4.64858,4.64858z" data-paper-data="{&quot;isPathIcon&quot;:true}"></path></g></g></g></svg>